<?xml version="1.0" encoding="UTF-8" standalone="no"?>
<!-- Created with Inkscape (http://www.inkscape.org/) -->

<svg
   width="210mm"
   height="297mm"
   viewBox="0 0 210 297"
   version="1.1"
   id="svg1"
   xml:space="preserve"
   inkscape:version="1.3 (0e150ed6c4, 2023-07-21)"
   sodipodi:docname="dibujo.svg"
   xmlns:inkscape="http://www.inkscape.org/namespaces/inkscape"
   xmlns:sodipodi="http://sodipodi.sourceforge.net/DTD/sodipodi-0.dtd"
   xmlns="http://www.w3.org/2000/svg"
   xmlns:svg="http://www.w3.org/2000/svg"><sodipodi:namedview
     id="namedview1"
     pagecolor="#ffffff"
     bordercolor="#000000"
     borderopacity="0.25"
     inkscape:showpageshadow="2"
     inkscape:pageopacity="0.0"
     inkscape:pagecheckerboard="0"
     inkscape:deskcolor="#d1d1d1"
     inkscape:document-units="mm"
     inkscape:zoom="0.57103676"
     inkscape:cx="396.64697"
     inkscape:cy="561.25984"
     inkscape:window-width="1600"
     inkscape:window-height="837"
     inkscape:window-x="-8"
     inkscape:window-y="288"
     inkscape:window-maximized="1"
     inkscape:current-layer="layer1" /><defs
     id="defs1" /><g
     inkscape:label="Capa 1"
     inkscape:groupmode="layer"
     id="layer1"><g
       id="g1"
       transform="translate(-0.92667678,-13.436818)"><path
         style="fill:#980101"
         d="m 11.633542,223.49392 c -0.440472,-0.39999 -0.78953,-1.49753 -0.775685,-2.43898 0.01385,-0.94144 20.572214,-34.06306 45.685264,-73.6036 39.078735,-61.529535 46.045959,-71.891892 48.337179,-71.891892 2.29098,0 9.2662,10.368977 48.36177,71.891892 26.12242,41.10764 45.55749,72.81773 45.38765,74.05405 -0.29382,2.13873 -1.3044,2.16517 -93.24618,2.43898 -51.122026,0.15225 -93.309526,-0.0504 -93.749998,-0.45045 z M 175.86469,210.72695 c 0.64308,-1.52186 -63.95418,-104.95127 -68.74677,-110.07334 l -2.23762,-2.391459 -2.23762,2.391459 c -4.79258,5.12207 -69.389849,108.55148 -68.746762,110.07334 1.013937,2.39948 140.954832,2.39948 141.968772,0 z"
         id="path2" /><path
         style="fill:#171717"
         d="m 98.927922,199.34323 c -3.052569,-2.77206 -3.034308,-6.52301 0.04638,-9.52588 4.806118,-4.68472 13.346488,-1.70215 13.346488,4.66102 0,6.2409 -8.484,9.32265 -13.392863,4.86486 z m 3.156148,-24.31535 c -2.454586,-2.22902 -2.889976,-4.86979 -4.434309,-26.89534 -1.298445,-18.51866 -1.25817,-19.43657 0.972398,-22.16217 4.724521,-5.77302 12.466461,-3.62701 13.798081,3.82472 0.65366,3.65788 -1.9775,35.29956 -3.46916,41.7193 -0.90479,3.894 -4.45036,5.70808 -6.86701,3.51349 z"
         id="path1" /></g></g></svg>
